<?xml version="1.0" standalone="no"?>
<!DOCTYPE svg PUBLIC "-//W3C//DTD SVG 20010904//EN"
 "http://www.w3.org/TR/2001/REC-SVG-20010904/DTD/svg10.dtd">
<svg version="1.0" xmlns="http://www.w3.org/2000/svg"
 width="5000.000000pt" height="4886.000000pt" viewBox="0 0 5000.000000 4886.000000"
 preserveAspectRatio="xMidYMid meet">

<g transform="translate(0.000000,4886.000000) scale(0.100000,-0.100000)"
fill="#000000" stroke="none">
<path d="M35774 48794 c-134 -96 -285 -222 -604 -504 -676 -598 -1165 -941
-2665 -1872 -884 -549 -1246 -783 -1510 -980 -328 -244 -1127 -881 -1410
-1123 -1040 -890 -1684 -1711 -2028 -2585 -141 -357 -219 -667 -273 -1080 -22
-163 -33 -1471 -14 -1670 56 -616 345 -1742 665 -2595 237 -632 486 -1085 661
-1206 l44 -30 0 28 c0 52 30 427 45 573 169 1572 762 3461 1460 4650 449 766
1054 1626 1560 2220 149 174 465 485 570 559 94 66 197 121 228 121 14 0 17
-5 12 -22 -14 -53 -252 -518 -493 -963 -142 -264 -349 -646 -459 -850 -422
-782 -519 -976 -700 -1405 -563 -1334 -750 -2064 -823 -3205 -19 -300 -32
-1062 -20 -1214 30 -409 172 -1080 292 -1383 35 -88 14 -82 173 -51 355 68
958 353 1655 781 982 604 2228 1534 2690 2008 614 630 1221 1536 1601 2390
296 665 490 1346 574 2009 46 366 50 460 49 1050 -5 2130 -219 3578 -779 5260
-116 351 -400 1123 -419 1142 -2 2 -38 -22 -82 -53z"/>
<path d="M18280 36870 c-2419 -114 -4589 -912 -6615 -2434 -1436 -1079 -2816
-2579 -4037 -4391 -418 -620 -1006 -1536 -1873 -2920 -1020 -1628 -1265 -2017
-1680 -2660 -630 -977 -1213 -1837 -1768 -2610 -433 -603 -602 -798 -1382
-1600 -486 -502 -682 -716 -853 -934 l-65 -83 24 -19 c95 -73 715 -399 1129
-595 1000 -472 2284 -1002 3086 -1274 322 -109 540 -172 1049 -300 1564 -395
3014 -630 4570 -740 847 -60 1936 -67 2780 -20 1623 92 3165 358 4627 799
2003 605 3821 1520 5453 2745 327 245 839 658 993 801 l72 67 1 -949 c0 -521
1 -5050 2 -10063 l2 -9115 27 -81 c81 -238 279 -406 556 -471 73 -17 188 -18
2312 -18 l2235 0 85 22 c108 29 248 98 325 161 104 85 187 212 220 337 14 54
15 1286 15 12630 -1 8828 2 12613 10 12715 35 478 119 912 257 1335 408 1248
1255 2346 2428 3147 331 226 848 506 1215 657 730 302 1380 458 2250 542 169
17 1859 24 2125 9 1330 -72 2534 -462 3602 -1167 620 -409 1202 -959 1635
-1543 565 -764 933 -1641 1067 -2545 12 -77 29 -207 37 -290 15 -137 17 -1213
24 -12790 7 -11723 9 -12644 24 -12699 69 -246 267 -428 541 -498 l90 -23
2235 0 2235 0 86 22 c299 76 510 283 555 543 12 75 14 1509 11 11530 -2 8506
-6 11478 -15 11575 -33 373 -57 580 -97 820 -345 2100 -1508 4059 -3330 5611
-1005 855 -2209 1573 -3515 2096 -1304 522 -2685 852 -4145 987 -571 54 -655
56 -1995 56 -1303 0 -1363 -1 -1890 -46 -1934 -162 -3753 -673 -5405 -1518
l-250 -128 -620 -7 c-2814 -28 -4672 -233 -6620 -731 -1480 -378 -3348 -1051
-4713 -1699 -1055 -501 -1865 -961 -3882 -2208 -360 -222 -799 -491 -975 -598
-605 -365 -1291 -758 -1303 -746 -10 11 28 116 74 203 95 182 296 448 569 753
183 204 786 807 1075 1075 452 419 1088 988 1315 1176 1168 968 2859 1952
4730 2754 2342 1003 4699 1624 6625 1745 342 21 694 20 1965 -3 721 -14 1312
-23 1314 -21 2 2 -11 29 -30 61 -44 74 -215 245 -350 350 -593 460 -1952 1177
-3464 1825 -1701 731 -3457 1196 -5065 1343 -503 46 -1272 66 -1720 45z"/>
</g>
</svg>
