<?xml version="1.0" standalone="no"?>
<!DOCTYPE svg PUBLIC "-//W3C//DTD SVG 20010904//EN"
 "http://www.w3.org/TR/2001/REC-SVG-20010904/DTD/svg10.dtd">
<svg version="1.0" xmlns="http://www.w3.org/2000/svg"
 width="238.000000pt" height="246.000000pt" viewBox="0 0 238.000000 246.000000"
 preserveAspectRatio="xMidYMid meet">

<g transform="translate(0.000000,246.000000) scale(0.100000,-0.100000)"
fill="#000000" stroke="none">
<path d="M1217 2280 c-14 -11 -30 -20 -37 -20 -32 0 -70 -34 -93 -82 -21 -44
-23 -54 -11 -61 18 -10 44 14 44 42 0 28 34 61 63 61 12 0 36 13 52 29 29 27
31 28 70 14 22 -7 43 -20 48 -28 4 -8 21 -15 37 -15 31 0 73 -41 64 -64 -8
-20 32 -49 51 -39 15 9 15 11 1 22 -9 8 -16 22 -16 33 0 27 -63 88 -90 88 -12
0 -33 9 -47 20 -17 13 -41 20 -68 20 -27 0 -51 -7 -68 -20z"/>
<path d="M1241 2150 c-17 -27 -33 -62 -37 -77 -11 -54 -12 -55 -35 -35 -19 19
-117 52 -151 52 -9 0 -21 -7 -28 -16 -13 -14 -4 -58 27 -132 3 -7 -7 -17 -26
-23 -16 -6 -33 -20 -37 -31 -8 -27 2 -34 24 -15 30 28 109 22 173 -12 30 -16
89 -37 132 -47 52 -12 77 -22 77 -32 0 -11 -10 -13 -42 -9 -125 17 -156 19
-163 7 -11 -18 -2 -22 104 -35 111 -15 138 -10 246 48 27 15 55 27 62 27 6 0
13 4 15 8 2 4 15 5 30 2 25 -5 20 -10 -65 -67 -62 -42 -122 -72 -184 -94 l-92
-31 -131 31 c-72 17 -144 31 -160 31 -41 0 -39 -27 3 -35 17 -3 83 -18 145
-32 131 -29 167 -28 277 14 98 36 275 153 275 182 0 17 -43 41 -76 41 -20 0
-34 6 -38 16 -3 8 -10 13 -15 10 -20 -13 -17 21 5 56 33 52 45 110 27 127 -22
20 -159 -10 -146 -32 4 -6 1 -7 -6 -3 -7 5 -20 1 -30 -8 -16 -15 -18 -13 -30
34 -14 55 -63 130 -85 130 -8 0 -28 -22 -45 -50z m89 -70 c22 -77 2 -192 -36
-207 -21 -8 -42 20 -55 71 -15 59 -6 126 23 178 l22 39 18 -23 c10 -13 22 -39
28 -58z m-240 -40 c19 -5 51 -23 71 -40 35 -28 39 -39 55 -122 3 -14 -3 -13
-39 8 -23 13 -58 28 -77 34 -29 8 -40 19 -58 55 -36 75 -28 86 48 65z m470 6
c0 -2 -7 -20 -15 -40 -9 -20 -13 -42 -9 -48 4 -6 3 -8 -4 -4 -6 3 -17 -2 -24
-12 -26 -36 -85 -71 -128 -77 -38 -5 -43 -4 -30 7 8 7 16 25 17 40 3 50 26 81
82 110 45 23 111 38 111 24z m-20 -171 c0 -14 -40 -46 -75 -61 l-40 -16 30 33
c17 19 35 37 40 41 12 9 45 11 45 3z"/>
<path d="M703 1904 c-10 -4 -13 -48 -13 -169 0 -90 3 -170 6 -179 5 -12 21
-16 70 -16 35 0 65 5 66 10 0 6 1 16 2 23 1 6 19 14 41 17 l40 5 0 155 0 155
-100 2 c-55 1 -106 -1 -112 -3z m189 -149 l3 -135 -30 0 -30 0 2 132 c1 73 3
134 3 136 0 1 11 2 24 2 l25 0 3 -135z"/>
<path d="M372 1319 c-89 -11 -162 -61 -162 -111 0 -31 43 -67 95 -79 176 -41
198 -55 193 -128 -5 -67 -36 -86 -143 -86 -91 0 -125 16 -125 61 0 34 33 48
97 40 43 -5 53 -3 53 9 0 19 -40 29 -98 22 -80 -9 -114 -75 -66 -128 20 -22
82 -39 145 -39 113 0 168 35 176 112 8 82 -38 125 -166 152 -97 21 -127 41
-117 79 10 40 58 60 154 65 70 4 104 14 91 26 -11 10 -72 13 -127 5z"/>
<path d="M715 1321 c-95 -24 -135 -101 -85 -164 l20 -26 -29 -17 c-54 -32 -72
-121 -34 -171 34 -47 78 -66 148 -66 67 -1 115 20 115 48 0 14 -4 13 -31 -1
-62 -32 -173 -12 -199 35 -18 34 -12 88 13 117 20 23 34 28 85 32 34 2 62 8
62 13 0 5 -4 10 -10 10 -5 1 -14 3 -20 4 -5 1 -19 3 -30 4 -29 2 -70 45 -70
75 0 51 90 97 155 78 25 -8 30 -14 28 -38 -2 -28 -1 -28 13 -9 8 11 12 26 9
33 -3 8 -5 17 -5 22 0 18 -91 32 -135 21z"/>
<path d="M1443 1319 c-136 -26 -254 -161 -254 -293 0 -72 20 -109 71 -130 73
-29 153 -14 195 36 23 27 26 39 22 74 -4 39 -2 43 20 46 13 2 24 8 23 13 0 12
-170 19 -170 7 0 -5 19 -13 42 -18 34 -7 45 -15 52 -37 32 -89 -131 -142 -200
-66 -44 49 -4 204 68 264 71 60 187 92 236 66 20 -11 20 -13 7 -52 -17 -47
-20 -187 -5 -238 22 -79 72 -121 144 -121 40 0 93 33 108 66 l12 25 15 -42 c9
-23 22 -44 28 -46 10 -4 11 16 7 84 -4 48 -1 146 5 217 9 89 9 132 2 139 -21
21 -23 12 -41 -153 -14 -132 -26 -168 -71 -214 -35 -34 -43 -38 -75 -33 -49 8
-71 31 -89 90 -17 57 -20 203 -5 212 6 3 10 26 10 51 0 27 -4 43 -10 39 -5 -3
-18 -2 -27 3 -30 15 -76 19 -120 11z"/>
<path d="M1942 1188 c1 -84 -4 -171 -12 -211 -12 -59 -12 -70 1 -78 17 -12
216 -1 242 13 33 17 9 22 -102 19 l-109 -2 9 38 c5 21 11 94 13 163 5 126 -5
189 -31 197 -9 3 -12 -32 -11 -139z"/>
<path d="M903 1294 c-25 -38 -25 -169 0 -241 36 -103 136 -182 181 -144 27 23
82 145 95 211 32 169 6 199 -34 38 -48 -202 -79 -249 -132 -204 -65 54 -109
206 -92 314 4 26 5 49 4 50 -2 2 -12 -9 -22 -24z"/>
<path d="M1757 759 c-26 -15 -52 -74 -73 -164 -24 -102 -27 -382 -5 -408 7 -9
17 -15 21 -12 4 2 10 55 14 116 9 151 51 437 62 426 3 -2 24 -79 49 -172 54
-201 89 -280 125 -280 34 0 63 55 95 184 41 165 65 242 75 236 5 -3 9 -108 10
-233 0 -188 3 -229 16 -242 12 -13 16 -13 23 -1 15 24 23 191 16 342 -6 118
-11 154 -26 178 -21 34 -43 39 -69 16 -9 -9 -43 -105 -76 -215 -32 -110 -61
-200 -65 -200 -3 0 -29 84 -58 188 -29 103 -55 195 -57 204 -7 23 -32 48 -47
48 -7 0 -20 -5 -30 -11z"/>
<path d="M518 733 c-16 -4 -18 -20 -18 -154 0 -82 -1 -149 -2 -149 -2 0 -37 6
-78 13 -41 8 -96 12 -122 10 l-48 -3 0 135 c0 76 -4 136 -10 140 -5 3 -18 2
-28 -4 -16 -9 -17 -29 -17 -283 l1 -273 22 -3 c21 -3 22 1 23 60 0 35 1 88 2
118 l2 55 76 3 c43 1 99 -1 125 -5 l49 -9 1 -99 c2 -133 1 -127 27 -123 l22 3
3 279 c2 153 0 282 -5 286 -4 3 -16 5 -25 3z"/>
<path d="M777 726 c-22 -8 -49 -24 -62 -36 -31 -29 -82 -126 -90 -173 -4 -21
-14 -41 -22 -44 -11 -4 -14 -16 -9 -42 3 -20 8 -76 11 -126 8 -120 12 -137 33
-133 14 3 17 17 20 85 l3 81 32 -9 c18 -5 52 -10 77 -11 51 -1 58 -8 105 -102
25 -49 36 -62 57 -64 l27 -3 3 113 c10 371 -47 514 -185 464z m100 -71 c34
-39 43 -88 43 -245 l-1 -145 -22 30 c-47 64 -94 110 -150 146 -32 21 -63 39
-69 41 -15 5 15 91 49 141 48 70 105 82 150 32z m-135 -257 c47 -38 50 -43 30
-46 -27 -4 -87 14 -101 32 -11 13 -4 56 9 56 5 0 32 -19 62 -42z"/>
<path d="M1453 730 c-25 -10 -30 -42 -10 -57 6 -6 24 -13 38 -16 25 -6 26 -11
33 -92 6 -80 -2 -335 -11 -345 -2 -2 -17 1 -33 7 -33 13 -40 9 -33 -17 7 -26
47 -36 126 -32 64 4 67 5 67 29 0 23 -3 25 -33 20 l-33 -5 0 224 c1 144 5 224
11 224 6 0 24 12 40 27 25 24 27 28 11 31 -9 2 -30 -1 -45 -8 -22 -8 -33 -8
-57 5 -33 17 -40 17 -71 5z"/>
<path d="M1323 716 c3 -7 13 -62 22 -121 17 -108 19 -335 2 -351 -32 -32 -182
231 -217 383 -23 99 -60 111 -60 20 0 -29 -13 -132 -30 -230 -33 -194 -36
-232 -19 -243 23 -14 37 25 58 151 12 72 24 141 27 154 4 19 14 5 54 -75 54
-109 127 -209 167 -227 23 -10 28 -8 49 16 13 15 28 46 34 69 17 61 14 227 -6
305 -19 77 -59 163 -75 163 -6 0 -9 -6 -6 -14z"/>
</g>
</svg>
